<svg width="24" height="24" viewBox="0 0 24 24" fill="none" xmlns="http://www.w3.org/2000/svg">
  <rect width="24" height="24" fill="none"/>
  <path d="M-12 9.53674e-07C-12 -3.31371 -9.31371 -6 -6 -6H179C182.314 -6 185 -3.31371 185 0V24C185 27.3137 182.314 30 179 30H-6C-9.31371 30 -12 27.3137 -12 24V9.53674e-07Z" fill="white" fill-opacity="0.16"/>
  <path d="M3 9L12 2L21 9V20C21 20.5304 20.7893 21.0391 20.4142 21.4142C20.0391 21.7893 19.5304 22 19 22H5C4.46957 22 3.96086 21.7893 3.58579 21.4142C3.21071 21.0391 3 20.5304 3 20V9Z" stroke="gray" stroke-width="2" stroke-linecap="round" stroke-linejoin="round"/>
  <path d="M9 22V12H15V22" stroke="gray" stroke-width="2" stroke-linecap="round" stroke-linejoin="round"/>
</svg>
