
<svg xmlns="http://www.w3.org/2000/svg" 
version="1.1" width="48px" height="48px" 
style="shape-rendering:geometricPrecision; text-rendering:geometricPrecision; image-rendering:optimizeQuality; fill-rule:evenodd; clip-rule:evenodd" 
xmlns:xlink="http://www.w3.org/1999/xlink">
<g><path style="opacity:0.855" fill="#fefffe" d="M 5.5,3.5 C 17.9337,3.04022 30.267,3.54022 42.5,5C 43.6503,14.0887 43.817,23.2553 43,32.5C 42.6258,33.4162 42.1258,34.2496 41.5,35C 32.5,35.3333 23.5,35.6667 14.5,36C 12.1667,38.3333 9.83333,40.6667 7.5,43C 6.20677,43.49 4.87344,43.6567 3.5,43.5C 3.33346,31.1622 3.50012,18.8288 4,6.5C 4.51328,5.47344 5.01328,4.47344 5.5,3.5 Z M 9.5,7.5 C 18.8393,7.33355 28.1726,7.50021 37.5,8C 38,8.5 38.5,9 39,9.5C 39.6667,16.1667 39.6667,22.8333 39,29.5C 38.5,30 38,30.5 37.5,31C 28.8333,31.3333 20.1667,31.6667 11.5,32C 10.3333,33.1667 9.16667,34.3333 8,35.5C 7.33333,26.8333 7.33333,18.1667 8,9.5C 8.71719,8.9558 9.21719,8.28913 9.5,7.5 Z"/></g>
</svg>
