<?xml version="1.0" encoding="UTF-8"?>
<!DOCTYPE svg PUBLIC "-//W3C//DTD SVG 1.1//EN" "http://www.w3.org/Graphics/SVG/1.1/DTD/svg11.dtd">
<svg xmlns="http://www.w3.org/2000/svg" version="1.1" width="48px" height="48px" style="shape-rendering:geometricPrecision; text-rendering:geometricPrecision; image-rendering:optimizeQuality; fill-rule:evenodd; clip-rule:evenodd" xmlns:xlink="http://www.w3.org/1999/xlink">
<g><path style="opacity:0.68" fill="#00008B" d="M 16.5,-0.5 C 21.1667,-0.5 25.8333,-0.5 30.5,-0.5C 36.6446,1.63518 41.3112,5.63518 44.5,11.5C 43.9653,13.1013 42.9653,13.6013 41.5,13C 30.9612,0.081296 19.4612,-0.752037 7,10.5C 0.237462,21.2347 1.40413,31.068 10.5,40C 16.6148,44.2648 23.2815,45.4314 30.5,43.5C 30.5,44.8333 30.5,46.1667 30.5,47.5C 25.8333,47.5 21.1667,47.5 16.5,47.5C 8.5,44.1667 2.83333,38.5 -0.5,30.5C -0.5,25.8333 -0.5,21.1667 -0.5,16.5C 2.83333,8.5 8.5,2.83333 16.5,-0.5 Z"/></g>
<g><path style="opacity:0.586" fill="#00008B" d="M 21.5,7.5 C 24.4234,8.29503 27.0901,9.62836 29.5,11.5C 27.2036,12.8191 25.2036,14.4857 23.5,16.5C 24.7994,18.5903 26.2994,20.5903 28,22.5C 28.4652,21.0692 29.2986,19.9025 30.5,19C 29.0439,18.5774 28.5439,17.7441 29,16.5C 30.3513,14.981 31.8513,13.6477 33.5,12.5C 34.7253,14.8433 34.0586,16.6766 31.5,18C 32.7659,18.3095 33.9326,18.8095 35,19.5C 35.6667,22.1667 35.6667,24.8333 35,27.5C 32.405,30.9172 30.905,34.7505 30.5,39C 25.5111,39.4993 20.5111,39.6659 15.5,39.5C 15.6633,37.1432 15.4966,34.8098 15,32.5C 11.8141,28.7016 10.8141,24.3683 12,19.5C 13.0674,18.8095 14.2341,18.3095 15.5,18C 13.393,16.7365 12.393,14.9032 12.5,12.5C 15.4799,12.6415 17.4799,14.1415 18.5,17C 18.0946,17.9454 17.428,18.6121 16.5,19C 17.3333,19.8333 18.1667,20.6667 19,21.5C 19.9025,20.2986 21.0692,19.4652 22.5,19C 20.2297,15.3904 19.8963,11.5571 21.5,7.5 Z M 22.5,21.5 C 25.8606,22.2032 26.1939,23.5365 23.5,25.5C 21.3576,24.5629 21.0243,23.2296 22.5,21.5 Z M 15.5,27.5 C 20.2169,32.3821 25.2169,32.7155 30.5,28.5C 28.877,31.2153 28.2104,34.2153 28.5,37.5C 25.1667,37.5 21.8333,37.5 18.5,37.5C 18.6621,35.4727 18.4955,33.4727 18,31.5C 16.5187,30.5291 15.6854,29.1958 15.5,27.5 Z"/></g>
<g><path style="opacity:0.591" fill="#00008B" d="M 47.5,17.5 C 47.5,19.8333 47.5,22.1667 47.5,24.5C 46.5,24.5 45.5,24.5 44.5,24.5C 44.3259,22.139 43.9926,19.8056 43.5,17.5C 44.8333,17.5 46.1667,17.5 47.5,17.5 Z"/></g>
<g><path style="opacity:0.552" fill="#00008B" d="M 47.5,29.5 C 47.5,29.8333 47.5,30.1667 47.5,30.5C 46.7895,32.4124 45.6229,34.079 44,35.5C 42.9412,35.3699 42.1079,34.8699 41.5,34C 42.218,32.0126 43.218,30.1792 44.5,28.5C 45.4168,29.1272 46.4168,29.4606 47.5,29.5 Z"/></g>
<g><path style="opacity:0.559" fill="#00008B" d="M 38.5,37.5 C 39.6266,38.1217 40.6266,38.955 41.5,40C 39.9571,41.8783 38.1238,43.3783 36,44.5C 35.1301,43.8921 34.6301,43.0588 34.5,42C 36.0182,40.6494 37.3515,39.1494 38.5,37.5 Z"/></g>
</svg>
