
<svg xmlns="http://www.w3.org/2000/svg" version="1.1" width="48px" height="48px" style="shape-rendering:geometricPrecision; text-rendering:geometricPrecision; image-rendering:optimizeQuality; fill-rule:evenodd; clip-rule:evenodd" xmlns:xlink="http://www.w3.org/1999/xlink">
<g><path style="opacity:0.737" fill="#808080" d="M 7.5,5.5 C 18.415,5.17966 29.2483,5.51299 40,6.5C 41.9466,10.6194 43.1132,14.9527 43.5,19.5C 43.7052,22.2285 42.8718,24.5618 41,26.5C 40.8052,31.4179 40.3052,36.2512 39.5,41C 28.59,41.8196 17.7567,41.6529 7,40.5C 6.66667,35.8333 6.33333,31.1667 6,26.5C 4.12817,24.5618 3.29484,22.2285 3.5,19.5C 4.21802,14.6234 5.55135,9.95676 7.5,5.5 Z M 9.5,8.5 C 18.5062,8.33356 27.5062,8.50023 36.5,9C 37.6687,11.0065 38.3354,13.1732 38.5,15.5C 28.5,15.5 18.5,15.5 8.5,15.5C 8.99255,13.1944 9.32588,10.861 9.5,8.5 Z M 7.5,19.5 C 10.1667,19.5 12.8333,19.5 15.5,19.5C 14.6615,24.6677 12.1615,25.6677 8,22.5C 7.51722,21.552 7.35055,20.552 7.5,19.5 Z M 19.5,19.5 C 22.1667,19.5 24.8333,19.5 27.5,19.5C 26.6615,24.6677 24.1615,25.6677 20,22.5C 19.5172,21.552 19.3505,20.552 19.5,19.5 Z M 31.5,19.5 C 34.1667,19.5 36.8333,19.5 39.5,19.5C 38.6615,24.6677 36.1615,25.6677 32,22.5C 31.5172,21.552 31.3505,20.552 31.5,19.5 Z M 16.5,26.5 C 20.8382,29.0571 25.1716,29.0571 29.5,26.5C 31.6179,27.9459 33.9512,28.6126 36.5,28.5C 36.5,31.8333 36.5,35.1667 36.5,38.5C 27.8333,38.5 19.1667,38.5 10.5,38.5C 10.5,35.1667 10.5,31.8333 10.5,28.5C 12.8984,28.7406 14.8984,28.0739 16.5,26.5 Z"/></g>
</svg>
