<svg class="svg-icon"
 style="width: 1.064453125em; 
 height: 1em;vertical-align: middle;fill: 
 currentColor;overflow: hidden;" viewBox="0 0 1090 1024" 
 version="1.1" xmlns="http://www.w3.org/2000/svg">
 <path d="M649.365854 754.263415V732.617886v-4.995122c-1.665041-44.956098-18.315447-85.749593-44.956098-122.380488-5.827642-7.492683-9.990244-13.320325-13.320325-18.315447-28.305691-34.133333-69.099187-52.44878-69.099187-52.44878-83.252033-42.458537-213.957724-29.138211-278.894309 86.582114-23.310569 45.788618-32.468293 79.921951-34.965854 124.878048-0.83252 8.325203 1.665041 17.482927 10.822765 20.813009 1.665041 1.665041 3.330081 1.665041 5.827642 1.66504h413.762601c5.827642 0 9.990244-4.995122 11.655285-11.655284-0.83252 0-0.83252-1.665041-0.83252-2.497561z m-402.939838-58.276423C270.569106 601.912195 341.333333 531.147967 457.886179 549.463415c100.734959 20.813008 140.695935 94.907317 158.178862 182.321951 0.83252 2.497561 0.83252 4.995122 0.83252 7.492683H237.268293c4.162602-15.817886 6.660163-34.133333 9.157723-43.291057zM913.274797 731.785366c-12.487805-159.011382-168.169106-275.564228-321.352846-196.474797 9.157724 6.660163 17.482927 14.152846 25.80813 22.478049 54.113821-24.143089 89.912195-24.143089 131.538212-7.492683 79.089431 31.635772 114.887805 87.414634 130.705691 183.986992 0 1.665041 0 2.497561 0.83252 4.162601H691.82439c0.83252 9.990244 0.83252 19.980488 0 29.970732h212.292683c1.665041 0 3.330081-0.83252 4.995122-3.330081 8.325203-4.995122 4.995122-14.985366 4.162602-33.300813zM427.915447 481.196748c69.099187 0 119.050407-49.95122 119.050407-120.715447 0-64.936585-53.281301-121.547967-115.720326-121.547968-69.099187 0-120.715447 53.281301-120.715447 124.045529 0 68.266667 49.95122 118.217886 117.385366 118.217886zM426.250407 274.731707c56.611382-0.83252 90.744715 32.468293 91.577235 87.414634 0 49.95122-37.463415 89.079675-87.414634 89.079675-48.286179 0.83252-94.074797-43.291057-94.074797-89.912195-0.83252-49.118699 38.295935-85.749593 89.912196-86.582114zM689.326829 481.196748c69.931707 0 120.715447-49.118699 120.715447-118.217886 0-69.099187-51.61626-123.213008-117.385365-124.045529-64.936585 0-118.217886 54.946341-118.217887 123.213008-0.83252 67.434146 49.118699 119.050407 114.887805 119.050407z m2.497561-213.957724c49.95122 0 89.079675 38.295935 89.912195 88.247155 0.83252 48.286179-43.291057 94.907317-90.744715 94.907317-46.621138 0-91.577236-47.453659-89.912195-94.907317 1.665041-49.95122 40.793496-88.247154 90.744715-88.247155z" fill="#1D1C1B" />
 </svg>